<?xml version="1.0" encoding="utf-8"?>
<!-- Generator: Adobe Illustrator 26.2.1, SVG Export Plug-In . SVG Version: 6.00 Build 0)  -->
<svg version="1.1" id="Capa_1" xmlns="http://www.w3.org/2000/svg" xmlns:xlink="http://www.w3.org/1999/xlink" x="0px" y="0px"
	 viewBox="0 0 104.67 104.66" style="enable-background:new 0 0 104.67 104.66;" xml:space="preserve">
<style type="text/css">
	.st0{fill:#1DB1A7;}
	.st1{clip-path:url(#SVGID_00000091695260731970598430000014670741329021968060_);}
	.st2{fill:#180900;}
	.st3{fill:#F8C1A6;}
	.st4{fill:#ECECEC;}
	.st5{fill:#E0AF97;}
	.st6{fill:#E64645;}
	.st7{fill:#422918;}
</style>
<ellipse transform="matrix(0.1608 -0.987 0.987 0.1608 -7.5218 95.5958)" class="st0" cx="52.46" cy="52.22" rx="52.33" ry="52.33"/>
<g>
	<defs>
		
			<ellipse id="SVGID_1_" transform="matrix(0.1608 -0.987 0.987 0.1608 -7.5218 95.5958)" cx="52.46" cy="52.22" rx="52.33" ry="52.33"/>
	</defs>
	<clipPath id="SVGID_00000051355091145458370900000002749420526337659284_">
		<use xlink:href="#SVGID_1_"  style="overflow:visible;"/>
	</clipPath>
	<g style="clip-path:url(#SVGID_00000051355091145458370900000002749420526337659284_);">
		<path class="st2" d="M28.51,47.82c-0.29,0.43-1.19,36.82,5.2,44.27h36.2c0,0,9.89-27.94,3.15-44.27H28.29"/>
		<g>
			<rect x="43.01" y="67.82" class="st3" width="20.04" height="13.5"/>
			<path class="st4" d="M47.88,77.59c3.02,1.2,6.33,1.92,9.58,1.95c1.86,0.01,3.76-0.22,5.6-0.54V67.82H43.01v6.98
				C44.42,76.04,46.22,76.93,47.88,77.59z"/>
			<g>
				<path class="st3" d="M74.73,42.41c0.07-0.5,0.91-1.31,1.28-1.58c0.82-0.61,1.65,0.02,1.89,0.81c0.21,0.71,0.23,1.51,0.29,2.24
					c0.13,1.79-0.15,3.55-0.95,5.17c-0.54,1.08-1.38,1.97-2.38,2.64c0,0-1.08,0.54-1.29-0.7C73.56,51,74.73,42.42,74.73,42.41z"/>
				<path class="st5" d="M74.56,43.49c0.05-0.36,0.65-0.93,0.92-1.13c0.59-0.44,1.18,0.01,1.36,0.58c0.15,0.51,0.17,1.08,0.21,1.6
					c0.09,1.28-0.11,2.54-0.68,3.7c-0.39,0.77-0.99,1.41-1.71,1.89c0,0-0.77,0.38-0.92-0.5C73.72,49.63,74.56,43.5,74.56,43.49z"/>
			</g>
			<g>
				<path class="st3" d="M30.83,42.41c-0.07-0.5-0.91-1.31-1.28-1.58c-0.82-0.61-1.65,0.02-1.89,0.81
					c-0.22,0.71-0.24,1.51-0.29,2.24c-0.12,1.79,0.15,3.55,0.95,5.17c0.54,1.08,1.38,1.97,2.38,2.64c0,0,1.08,0.54,1.29-0.7
					C32,51,30.83,42.42,30.83,42.41z"/>
				<path class="st5" d="M31,43.49c-0.05-0.36-0.65-0.93-0.92-1.13c-0.59-0.44-1.18,0.01-1.35,0.58c-0.15,0.51-0.17,1.08-0.21,1.6
					c-0.09,1.28,0.11,2.54,0.68,3.7c0.39,0.77,0.99,1.41,1.71,1.89c0,0,0.77,0.38,0.93-0.5C31.84,49.63,31,43.5,31,43.49z"/>
			</g>
			<path class="st3" d="M75.39,44.03c0,5.66-0.98,11.38-3.64,16.27c-2.33,4.28-5.83,7.71-9.59,10.45
				c-3.05,2.22-6.32,4.81-10.17,4.49c-4.02-0.33-7.15-3.76-10.09-6.43c-4.13-3.76-7.39-8.43-9.4-13.93
				c-1.24-3.39-1.81-7.21-1.81-10.86c0-18.29,10.01-29.79,22.35-29.79C65.38,14.24,75.39,25.74,75.39,44.03z"/>
			<path class="st3" d="M83.53,87.43L61.77,80.9h-8.73H44.3l-21.76,6.53c0,0-10.08,4.29-11.2,17.86h41.7h41.7
				C93.61,91.72,83.53,87.43,83.53,87.43z"/>
			<path class="st6" d="M83.53,87.43l-12.03-3.61l-18.46,18.44L34.52,83.84l-11.98,3.59c0,0-10.08,4.29-11.2,17.86h41.7h41.7
				C93.61,91.72,83.53,87.43,83.53,87.43z"/>
		</g>
		<path class="st7" d="M37.87,21.5c0,0,10.76,17.07,37.45,19.98c0,0,5.05-19.45-13.72-28.9C61.6,12.57,47.23,6.64,37.87,21.5z"/>
		<path class="st7" d="M40.63,24.95c0,0-6.95,4.5-9.97,17.05c0,0-3.23-23.65,13.49-26.6L40.63,24.95z"/>
		<path class="st7" d="M67.9,39.51c0,0,7.16,45.56-4.16,58.46c0,0,14.47-2.15,15.19-22.07c0,0,2.58-40.69-7.21-54.73L67.9,39.51z"/>
		<path class="st7" d="M37.28,97.97c0,0-16.66-1.98-12.08-53.21c0,0,1.15-28.46,17.81-29.11l-0.96,10.8c0,0-9.58,2.85-8.34,25.37
			C33.71,51.81,32.73,88.08,37.28,97.97z"/>
	</g>
</g>
</svg>
