<svg width="49" height="49" viewBox="0 0 49 49" fill="none" xmlns="http://www.w3.org/2000/svg">
<g filter="url(#filter0_d_96_13)">
<path opacity="0.4" d="M24.5 41C35.8217 41 45 31.8217 45 20.5C45 9.17816 35.8217 0 24.5 0C13.1782 0 4 9.17816 4 20.5C4 31.8217 13.1782 41 24.5 41Z" fill="#FFA62B"/>
<path d="M26.6717 20.5002L31.3867 15.7853C31.9812 15.1908 31.9812 14.2068 31.3867 13.6123C30.7922 13.0178 29.8082 13.0178 29.2137 13.6123L24.4987 18.3272L19.7836 13.6123C19.1891 13.0178 18.2051 13.0178 17.6107 13.6123C17.0162 14.2068 17.0162 15.1908 17.6107 15.7853L22.3257 20.5002L17.6107 25.2152C17.0162 25.8097 17.0162 26.7937 17.6107 27.3882C17.9182 27.6957 18.3076 27.8392 18.6971 27.8392C19.0866 27.8392 19.4761 27.6957 19.7836 27.3882L24.4987 22.6732L29.2137 27.3882C29.5212 27.6957 29.9107 27.8392 30.3002 27.8392C30.6897 27.8392 31.0792 27.6957 31.3867 27.3882C31.9812 26.7937 31.9812 25.8097 31.3867 25.2152L26.6717 20.5002Z" fill="#FFA62B"/>
</g>
<defs>
<filter id="filter0_d_96_13" x="0" y="0" width="49" height="49" filterUnits="userSpaceOnUse" color-interpolation-filters="sRGB">
<feFlood flood-opacity="0" result="BackgroundImageFix"/>
<feColorMatrix in="SourceAlpha" type="matrix" values="0 0 0 0 0 0 0 0 0 0 0 0 0 0 0 0 0 0 127 0" result="hardAlpha"/>
<feOffset dy="4"/>
<feGaussianBlur stdDeviation="2"/>
<feComposite in2="hardAlpha" operator="out"/>
<feColorMatrix type="matrix" values="0 0 0 0 0 0 0 0 0 0 0 0 0 0 0 0 0 0 0.25 0"/>
<feBlend mode="normal" in2="BackgroundImageFix" result="effect1_dropShadow_96_13"/>
<feBlend mode="normal" in="SourceGraphic" in2="effect1_dropShadow_96_13" result="shape"/>
</filter>
</defs>
</svg>
<!-- <svg width="49" height="49" viewBox="0 0 49 49" fill="none" xmlns="http://www.w3.org/2000/svg"> -->
<svg width="100" height="100" viewBox="0 0 49 49" fill="none" xmlns="http://www.w3.org/2000/svg">
<g filter="url(#filter0_d_96_13)">
<path opacity="0.4" d="M24.5 41C35.8217 41 45 31.8217 45 20.5C45 9.17816 35.8217 0 24.5 0C13.1782 0 4 9.17816 4 20.5C4 31.8217 13.1782 41 24.5 41Z" fill="#FFA62B"/>
<path d="M26.6717 20.5002L31.3867 15.7853C31.9812 15.1908 31.9812 14.2068 31.3867 13.6123C30.7922 13.0178 29.8082 13.0178 29.2137 13.6123L24.4987 18.3272L19.7836 13.6123C19.1891 13.0178 18.2051 13.0178 17.6107 13.6123C17.0162 14.2068 17.0162 15.1908 17.6107 15.7853L22.3257 20.5002L17.6107 25.2152C17.0162 25.8097 17.0162 26.7937 17.6107 27.3882C17.9182 27.6957 18.3076 27.8392 18.6971 27.8392C19.0866 27.8392 19.4761 27.6957 19.7836 27.3882L24.4987 22.6732L29.2137 27.3882C29.5212 27.6957 29.9107 27.8392 30.3002 27.8392C30.6897 27.8392 31.0792 27.6957 31.3867 27.3882C31.9812 26.7937 31.9812 25.8097 31.3867 25.2152L26.6717 20.5002Z" fill="#FFA62B"/>
</g>
<defs>
<filter id="filter0_d_96_13" x="0" y="0" width="49" height="49" filterUnits="userSpaceOnUse" color-interpolation-filters="sRGB">
<feFlood flood-opacity="0" result="BackgroundImageFix"/>
<feColorMatrix in="SourceAlpha" type="matrix" values="0 0 0 0 0 0 0 0 0 0 0 0 0 0 0 0 0 0 127 0" result="hardAlpha"/>
<feOffset dy="4"/>
<feGaussianBlur stdDeviation="2"/>
<feComposite in2="hardAlpha" operator="out"/>
<feColorMatrix type="matrix" values="0 0 0 0 0 0 0 0 0 0 0 0 0 0 0 0 0 0 0.25 0"/>
<feBlend mode="normal" in2="BackgroundImageFix" result="effect1_dropShadow_96_13"/>
<feBlend mode="normal" in="SourceGraphic" in2="effect1_dropShadow_96_13" result="shape"/>
</filter>
</defs>
</svg>
