<svg width="44" height="41" viewBox="0 0 44 41" fill="none" xmlns="http://www.w3.org/2000/svg">
<path d="M36.039 28.1262C34.8295 20.8898 27.8801 15.0064 20.5412 15.0064C12.5668 15.0064 5.55588 21.4638 4.87939 29.4177C4.6129 32.4926 5.59688 35.4036 7.62635 37.597C9.63532 39.7905 12.4643 41 15.5392 41H25.1331C28.5976 41 31.6315 39.647 33.702 37.2076C35.7725 34.7681 36.5925 31.5291 36.039 28.1262Z" fill="white"/>
<path d="M17.998 12.0128C21.3152 12.0128 24.0044 9.32365 24.0044 6.00641C24.0044 2.68917 21.3152 0 17.998 0C14.6807 0 11.9916 2.68917 11.9916 6.00641C11.9916 9.32365 14.6807 12.0128 17.998 12.0128Z" fill="white"/>
<path d="M31.6516 14.4081C34.4141 14.4081 36.6535 12.1686 36.6535 9.40616C36.6535 6.64366 34.4141 4.40424 31.6516 4.40424C28.889 4.40424 26.6497 6.64366 26.6497 9.40616C26.6497 12.1686 28.889 14.4081 31.6516 14.4081Z" fill="white"/>
<path d="M39.0512 22.4088C41.259 22.4088 43.0486 20.619 43.0486 18.4112C43.0486 16.2035 41.259 14.4138 39.0512 14.4138C36.8435 14.4138 35.0537 16.2035 35.0537 18.4112C35.0537 20.619 36.8435 22.4088 39.0512 22.4088Z" fill="white"/>
<path d="M5.00192 18.412C7.7644 18.412 10.0038 16.1725 10.0038 13.41C10.0038 10.6475 7.7644 8.40808 5.00192 8.40808C2.23945 8.40808 0 10.6475 0 13.41C0 16.1725 2.23945 18.412 5.00192 18.412Z" fill="white"/>
</svg>
