<svg width="41" height="41" viewBox="0 0 41 41" fill="none" xmlns="http://www.w3.org/2000/svg">
<path d="M10.7423 0H6.84721C2.35757 0 0 2.35757 0 6.82671V10.7218C0 15.191 2.35757 17.5485 6.82671 17.5485H10.7218C15.191 17.5485 17.5485 15.191 17.5485 10.7218V6.82671C17.569 2.35757 15.2115 0 10.7423 0Z" fill="white"/>
<path d="M34.1734 0H30.2783C25.8091 0 23.4515 2.35757 23.4515 6.82671V10.7218C23.4515 15.191 25.8091 17.5485 30.2783 17.5485H34.1734C38.6425 17.5485 41.0001 15.191 41.0001 10.7218V6.82671C41.0001 2.35757 38.6425 0 34.1734 0Z" fill="white"/>
<path d="M34.1734 23.4316H30.2783C25.8091 23.4316 23.4515 25.7892 23.4515 30.2583V34.1534C23.4515 38.6225 25.8091 40.9801 30.2783 40.9801H34.1734C38.6425 40.9801 41.0001 38.6225 41.0001 34.1534V30.2583C41.0001 25.7892 38.6425 23.4316 34.1734 23.4316Z" fill="white"/>
<path d="M10.7423 23.4316H6.84721C2.35757 23.4316 0 25.7892 0 30.2583V34.1534C0 38.643 2.35757 41.0006 6.82671 41.0006H10.7218C15.191 41.0006 17.5485 38.643 17.5485 34.1739V30.2788C17.569 25.7892 15.2115 23.4316 10.7423 23.4316Z" fill="white"/>
</svg>
