<?xml version="1.0" encoding="utf-8"?>
<!-- Generator: Adobe Illustrator 26.2.1, SVG Export Plug-In . SVG Version: 6.00 Build 0)  -->
<svg version="1.1" id="Capa_1" xmlns="http://www.w3.org/2000/svg" xmlns:xlink="http://www.w3.org/1999/xlink" x="0px" y="0px"
	 viewBox="0 0 506.7 506.7" style="enable-background:new 0 0 506.7 506.7;" xml:space="preserve">
<style type="text/css">
	.st0{fill:#FFFFFF;}
</style>
<g>
	<path class="st0" d="M490.3,35l-18.7-18.6c-21.9-21.9-57.3-21.9-79.2,0l-30.1,30l97.9,97.9l30.1-30.1
		C512.2,92.3,512.2,56.9,490.3,35z"/>
	<path class="st0" d="M158.9,258.3l-29.6,88.8c-2.9,8.6-0.6,18.1,5.8,24.6c6.4,6.5,15.9,8.7,24.6,5.8l88.8-29.6
		c8.2-2.8,15.7-7.4,21.9-13.5L437.7,167l-98-98L172.4,236.4C166.3,242.5,161.6,250,158.9,258.3z"/>
	<path class="st0" d="M416,282.7c-17.7,0-32,14.3-32,32v96c0,17.7-14.3,32-32,32H96c-17.7,0-32-14.3-32-32v-256
		c0-17.7,14.3-32,32-32h96c17.7,0,32-14.3,32-32c0-17.7-14.3-32-32-32H96c-53,0-96,43-96,96v256c0,53,43,96,96,96h256
		c53,0,96-43,96-96v-96C448,297,433.7,282.7,416,282.7z"/>
</g>
</svg>
