<svg width="25" height="25" viewBox="0 0 25 25" fill="none" xmlns="http://www.w3.org/2000/svg">
<g clip-path="url(#clip0_81_107)">
<path d="M1.3594 12.7051C0.287332 13.335 0.386949 15.0147 1.53017 15.5029L8.18553 18.3594V23.4033C8.18553 24.2871 8.87811 25 9.73671 25C10.1968 25 10.6333 24.79 10.9274 24.4238L13.8684 20.7959L19.7458 23.3154C20.6424 23.7012 21.6813 23.0957 21.8283 22.1094L24.8643 1.79688C24.9544 1.20606 24.703 0.610355 24.2239 0.273441C23.7448 -0.063473 23.1186 -0.0927698 22.611 0.205082L1.3594 12.7051ZM3.83085 13.9502L20.0305 4.42383L9.61338 16.4063L9.6703 16.4551L3.83085 13.9502ZM19.7269 20.7715L11.8239 17.3779L21.9801 5.69336L19.7269 20.7715Z" fill="#16697A"/>
</g>
<defs>
<clipPath id="clip0_81_107">
<rect width="24.2876" height="25" fill="white" transform="translate(0.595825)"/>
</clipPath>
</defs>
</svg>
