<svg width="59" height="59" viewBox="0 0 59 59" fill="none" xmlns="http://www.w3.org/2000/svg">
<path d="M29.5 0C13.2455 0 0 13.2455 0 29.5C0 45.7545 13.2455 59 29.5 59C45.7545 59 59 45.7545 59 29.5C59 13.2455 45.7545 0 29.5 0ZM41.3 31.7125H31.7125V41.3C31.7125 42.5095 30.7095 43.5125 29.5 43.5125C28.2905 43.5125 27.2875 42.5095 27.2875 41.3V31.7125H17.7C16.4905 31.7125 15.4875 30.7095 15.4875 29.5C15.4875 28.2905 16.4905 27.2875 17.7 27.2875H27.2875V17.7C27.2875 16.4905 28.2905 15.4875 29.5 15.4875C30.7095 15.4875 31.7125 16.4905 31.7125 17.7V27.2875H41.3C42.5095 27.2875 43.5125 28.2905 43.5125 29.5C43.5125 30.7095 42.5095 31.7125 41.3 31.7125Z" fill="#FFA62B"/>
</svg>
