<svg width="39" height="39" viewBox="0 0 39 39" fill="none" xmlns="http://www.w3.org/2000/svg">
<path d="M19.5 0C8.736 0 0 8.736 0 19.5C0 30.264 8.736 39 19.5 39C30.264 39 39 30.264 39 19.5C39 8.736 30.264 0 19.5 0ZM26.325 20.9625H16.2045L19.5585 24.3165C20.124 24.882 20.124 25.818 19.5585 26.3835C19.266 26.676 18.8955 26.8125 18.525 26.8125C18.1545 26.8125 17.784 26.676 17.4915 26.3835L11.6415 20.5335C11.076 19.968 11.076 19.032 11.6415 18.4665L17.4915 12.6165C18.057 12.051 18.993 12.051 19.5585 12.6165C20.124 13.182 20.124 14.118 19.5585 14.6835L16.2045 18.0375H26.325C27.1245 18.0375 27.7875 18.7005 27.7875 19.5C27.7875 20.2995 27.1245 20.9625 26.325 20.9625Z" fill="#FFA62B"/>
</svg>
