<?xml version="1.0" encoding="utf-8"?>
<!-- Generator: Adobe Illustrator 26.2.1, SVG Export Plug-In . SVG Version: 6.00 Build 0)  -->
<svg version="1.1" id="Capa_1" xmlns="http://www.w3.org/2000/svg" xmlns:xlink="http://www.w3.org/1999/xlink" x="0px" y="0px"
	 viewBox="0 0 512 512" style="enable-background:new 0 0 512 512;" xml:space="preserve">
<style type="text/css">
	.st0{fill:#FFFFFF;}
</style>
<path class="st0" d="M502.6,457.4L376,330.7c25.1-34.4,40-76.8,40-122.7C416,93.1,322.9,0,208,0S0,93.1,0,208s93.1,208,208,208
	c45.9,0,88.3-14.8,122.7-40l126.6,126.7c12.5,12.5,32.8,12.5,45.3,0C515.1,490.2,515.1,469.9,502.6,457.4z M208,352
	c-79.5,0-144-64.5-144-144S128.5,64,208,64s144,64.5,144,144S287.5,352,208,352z"/>
</svg>
